<svg width="107" height="32" viewBox="0 0 107 32" fill="none" xmlns="http://www.w3.org/2000/svg">
<path d="M0.816 24C0.576 24 0.456 23.912 0.456 23.736C0.456 23.592 0.56 23.496 0.768 23.448L1.32 23.352C1.656 23.288 1.872 23.2 1.968 23.088C2.08 22.976 2.136 22.752 2.136 22.416V8.304C2.136 7.968 2.08 7.744 1.968 7.632C1.872 7.52 1.656 7.432 1.32 7.368L0.768 7.272C0.56 7.224 0.456 7.128 0.456 6.984C0.456 6.808 0.576 6.72 0.816 6.72H5.208C5.448 6.72 5.568 6.816 5.568 7.008C5.568 7.152 5.48 7.24 5.304 7.272L4.656 7.368C4.32 7.416 4.096 7.504 3.984 7.632C3.888 7.76 3.84 7.992 3.84 8.328V14.808C3.84 14.968 3.888 15.064 3.984 15.096C4.08 15.128 4.168 15.072 4.248 14.928L8.184 8.76C8.712 7.944 8.664 7.48 8.04 7.368L7.488 7.272C7.28 7.224 7.176 7.12 7.176 6.96C7.176 6.8 7.288 6.72 7.512 6.72H11.592C11.816 6.72 11.928 6.808 11.928 6.984C11.928 7.16 11.824 7.256 11.616 7.272L11.16 7.32C10.664 7.368 10.256 7.512 9.936 7.752C9.616 7.992 9.256 8.424 8.856 9.048L6.144 13.296C5.984 13.568 5.976 13.832 6.12 14.088L10.632 22.584C10.76 22.84 10.888 23.024 11.016 23.136C11.16 23.248 11.328 23.32 11.52 23.352L12.096 23.448C12.288 23.464 12.384 23.56 12.384 23.736C12.384 23.912 12.272 24 12.048 24H7.776C7.552 24 7.44 23.912 7.44 23.736C7.44 23.576 7.544 23.48 7.752 23.448L8.16 23.4C8.784 23.32 8.912 22.928 8.544 22.224L5.088 15.648C5.024 15.52 4.952 15.456 4.872 15.456C4.792 15.44 4.712 15.496 4.632 15.624L4.128 16.416C4.016 16.576 3.936 16.728 3.888 16.872C3.856 17.016 3.84 17.2 3.84 17.424V22.392C3.84 22.728 3.888 22.96 3.984 23.088C4.096 23.216 4.32 23.304 4.656 23.352L5.304 23.448C5.48 23.48 5.568 23.568 5.568 23.712C5.568 23.904 5.448 24 5.208 24H0.816ZM12.3143 24C12.1223 24 12.0263 23.912 12.0263 23.736C12.0263 23.576 12.1143 23.48 12.2903 23.448L12.6263 23.4C12.9623 23.352 13.1783 23.256 13.2743 23.112C13.3863 22.968 13.4423 22.728 13.4423 22.392V8.64C13.4423 8.352 13.3943 8.16 13.2983 8.064C13.2183 7.952 13.0663 7.88 12.8423 7.848L12.3383 7.776C12.1623 7.744 12.0743 7.648 12.0743 7.488C12.0743 7.328 12.1623 7.232 12.3383 7.2C12.7863 7.104 13.1623 6.992 13.4663 6.864C13.7703 6.736 14.0263 6.608 14.2343 6.48C14.4903 6.32 14.6823 6.24 14.8103 6.24C14.9863 6.24 15.0743 6.368 15.0743 6.624V12.984C15.0743 13.128 15.1223 13.216 15.2183 13.248C15.3143 13.264 15.4343 13.208 15.5783 13.08C16.1863 12.52 16.7223 12.136 17.1863 11.928C17.6503 11.72 18.1383 11.616 18.6503 11.616C19.4023 11.616 19.9943 11.872 20.4263 12.384C20.8583 12.88 21.0743 13.616 21.0743 14.592V22.392C21.0743 22.728 21.1223 22.968 21.2183 23.112C21.3303 23.24 21.5543 23.328 21.8903 23.376L22.4183 23.448C22.5943 23.48 22.6823 23.576 22.6823 23.736C22.6823 23.912 22.5863 24 22.3943 24H18.3623C18.1383 24 18.0263 23.912 18.0263 23.736C18.0263 23.576 18.1143 23.48 18.2903 23.448L18.6263 23.4C18.9623 23.352 19.1783 23.256 19.2743 23.112C19.3863 22.968 19.4423 22.728 19.4423 22.392V14.856C19.4423 14.072 19.2983 13.52 19.0103 13.2C18.7223 12.88 18.3143 12.72 17.7863 12.72C17.2743 12.72 16.8103 12.872 16.3943 13.176C15.9943 13.464 15.6743 13.856 15.4343 14.352C15.1943 14.832 15.0743 15.368 15.0743 15.96V22.392C15.0743 22.728 15.1223 22.968 15.2183 23.112C15.3303 23.256 15.5543 23.344 15.8903 23.376L16.5383 23.448C16.7143 23.48 16.8023 23.576 16.8023 23.736C16.8023 23.912 16.7063 24 16.5143 24H12.3143ZM25.5797 24.216C24.9077 24.216 24.3557 24.008 23.9237 23.592C23.4917 23.16 23.2757 22.592 23.2757 21.888C23.2757 21.2 23.4917 20.552 23.9237 19.944C24.3557 19.32 24.9477 18.76 25.6997 18.264C26.4517 17.768 27.3077 17.368 28.2677 17.064C28.4757 17 28.5797 16.864 28.5797 16.656V14.472C28.5797 13.704 28.4597 13.16 28.2197 12.84C27.9797 12.504 27.6517 12.336 27.2357 12.336C26.8357 12.336 26.4677 12.52 26.1317 12.888C25.8117 13.24 25.5797 13.84 25.4357 14.688C25.3557 15.2 25.1797 15.576 24.9077 15.816C24.6517 16.04 24.3877 16.152 24.1157 16.152C23.6677 16.152 23.4437 15.928 23.4437 15.48C23.4437 15.016 23.5717 14.56 23.8277 14.112C24.0997 13.648 24.4517 13.232 24.8837 12.864C25.3157 12.48 25.7877 12.176 26.2997 11.952C26.8117 11.728 27.3237 11.616 27.8357 11.616C29.4197 11.616 30.2117 12.536 30.2117 14.376V21.72C30.2117 22.392 30.3797 22.728 30.7157 22.728C30.9237 22.728 31.1157 22.592 31.2917 22.32C31.4677 22.032 31.5557 21.552 31.5557 20.88C31.5557 20.624 31.6597 20.496 31.8677 20.496C32.0597 20.496 32.1557 20.632 32.1557 20.904C32.1557 22.072 31.9477 22.92 31.5317 23.448C31.1317 23.96 30.6757 24.216 30.1637 24.216C29.7797 24.216 29.4757 24.064 29.2517 23.76C29.0277 23.44 28.8757 23.064 28.7957 22.632C28.7797 22.472 28.7077 22.392 28.5797 22.392C28.4677 22.376 28.3557 22.448 28.2437 22.608C27.8597 23.136 27.4677 23.536 27.0677 23.808C26.6677 24.08 26.1717 24.216 25.5797 24.216ZM26.2277 23.112C26.6437 23.112 27.0277 22.968 27.3797 22.68C27.7317 22.376 28.0197 21.976 28.2437 21.48C28.4677 20.984 28.5797 20.424 28.5797 19.8V18.048C28.5797 17.744 28.4117 17.656 28.0757 17.784C27.0997 18.136 26.3397 18.624 25.7957 19.248C25.2677 19.856 25.0037 20.592 25.0037 21.456C25.0037 22.56 25.4117 23.112 26.2277 23.112ZM32.7656 24C32.5256 24 32.4056 23.912 32.4056 23.736C32.4056 23.592 32.5096 23.496 32.7176 23.448L33.0056 23.4C33.3416 23.336 33.5576 23.24 33.6536 23.112C33.7656 22.968 33.8216 22.728 33.8216 22.392V14.328C33.8216 14.04 33.7736 13.848 33.6776 13.752C33.5976 13.64 33.4456 13.568 33.2216 13.536L32.7176 13.464C32.5096 13.448 32.4056 13.36 32.4056 13.2C32.4056 13.072 32.5336 12.984 32.7896 12.936C33.2856 12.856 33.6616 12.728 33.9176 12.552C34.1896 12.376 34.4696 12.16 34.7576 11.904C34.9016 11.76 35.0216 11.688 35.1176 11.688C35.2616 11.688 35.3336 11.784 35.3336 11.976V13.056C35.3336 13.2 35.3816 13.296 35.4776 13.344C35.5896 13.376 35.7096 13.328 35.8376 13.2C36.4776 12.592 37.0376 12.176 37.5176 11.952C38.0136 11.728 38.5336 11.616 39.0776 11.616C39.7976 11.616 40.3736 11.872 40.8056 12.384C41.2376 12.88 41.4536 13.616 41.4536 14.592V22.392C41.4536 22.728 41.5016 22.968 41.5976 23.112C41.7096 23.24 41.9336 23.328 42.2696 23.376L42.7976 23.448C42.9736 23.48 43.0616 23.576 43.0616 23.736C43.0616 23.912 42.9656 24 42.7736 24H38.7416C38.5176 24 38.4056 23.912 38.4056 23.736C38.4056 23.576 38.4936 23.48 38.6696 23.448L39.0056 23.4C39.3416 23.352 39.5576 23.256 39.6536 23.112C39.7656 22.968 39.8216 22.728 39.8216 22.392V14.856C39.8216 14.072 39.6776 13.52 39.3896 13.2C39.1016 12.88 38.6936 12.72 38.1656 12.72C37.6536 12.72 37.1896 12.872 36.7736 13.176C36.3736 13.464 36.0536 13.856 35.8136 14.352C35.5736 14.832 35.4536 15.368 35.4536 15.96V22.392C35.4536 22.728 35.5016 22.968 35.5976 23.112C35.7096 23.256 35.9336 23.344 36.2696 23.376L36.9176 23.448C37.0936 23.48 37.1816 23.568 37.1816 23.712C37.1816 23.904 37.0616 24 36.8216 24H32.7656ZM47.3327 24.216C47.1247 24.216 46.9807 24.056 46.9007 23.736L43.9967 13.368C43.8847 12.984 43.7727 12.736 43.6607 12.624C43.5647 12.512 43.4047 12.432 43.1807 12.384L42.8207 12.312C42.6127 12.264 42.5087 12.16 42.5087 12C42.5087 11.84 42.6207 11.76 42.8447 11.76H46.7327C46.9567 11.76 47.0687 11.84 47.0687 12C47.0687 12.176 46.9647 12.28 46.7567 12.312L46.3727 12.36C45.9887 12.408 45.7487 12.504 45.6527 12.648C45.5567 12.776 45.5567 13.016 45.6527 13.368L47.5487 20.352C47.5967 20.512 47.6687 20.592 47.7647 20.592C47.8767 20.592 47.9567 20.512 48.0047 20.352L49.6367 14.136C49.6687 14.008 49.6847 13.88 49.6847 13.752C49.7007 13.624 49.6847 13.488 49.6367 13.344C49.5247 12.96 49.4127 12.72 49.3007 12.624C49.2047 12.512 49.0447 12.432 48.8207 12.384L48.4607 12.312C48.2527 12.264 48.1487 12.16 48.1487 12C48.1487 11.84 48.2607 11.76 48.4847 11.76H52.3727C52.5967 11.76 52.7087 11.84 52.7087 12C52.7087 12.176 52.6047 12.28 52.3967 12.312L52.0127 12.36C51.6287 12.408 51.3967 12.504 51.3167 12.648C51.2367 12.776 51.2287 13.016 51.2927 13.368L52.8287 20.304C52.8607 20.464 52.9247 20.544 53.0207 20.544C53.1327 20.544 53.2127 20.464 53.2607 20.304L55.0847 13.8C55.2127 13.368 55.2447 13.048 55.1807 12.84C55.1327 12.616 54.9087 12.472 54.5087 12.408L54.0047 12.312C53.7967 12.264 53.6927 12.16 53.6927 12C53.6927 11.84 53.8047 11.76 54.0287 11.76H57.0287C57.2527 11.76 57.3647 11.848 57.3647 12.024C57.3647 12.184 57.2687 12.296 57.0767 12.36L56.8607 12.432C56.6207 12.512 56.4127 12.656 56.2367 12.864C56.0607 13.072 55.9007 13.432 55.7567 13.944L53.0207 23.736C52.9407 24.056 52.7887 24.216 52.5647 24.216C52.3727 24.216 52.2367 24.056 52.1567 23.736L50.2847 16.056C50.2367 15.88 50.1567 15.792 50.0447 15.792C49.9487 15.776 49.8767 15.864 49.8287 16.056L47.7647 23.736C47.6847 24.056 47.5407 24.216 47.3327 24.216ZM59.5237 24.216C58.8517 24.216 58.2997 24.008 57.8677 23.592C57.4357 23.16 57.2197 22.592 57.2197 21.888C57.2197 21.2 57.4357 20.552 57.8677 19.944C58.2997 19.32 58.8917 18.76 59.6437 18.264C60.3957 17.768 61.2517 17.368 62.2117 17.064C62.4197 17 62.5237 16.864 62.5237 16.656V14.472C62.5237 13.704 62.4037 13.16 62.1637 12.84C61.9237 12.504 61.5957 12.336 61.1797 12.336C60.7797 12.336 60.4117 12.52 60.0757 12.888C59.7557 13.24 59.5237 13.84 59.3797 14.688C59.2997 15.2 59.1237 15.576 58.8517 15.816C58.5957 16.04 58.3317 16.152 58.0597 16.152C57.6117 16.152 57.3877 15.928 57.3877 15.48C57.3877 15.016 57.5157 14.56 57.7717 14.112C58.0437 13.648 58.3957 13.232 58.8277 12.864C59.2597 12.48 59.7317 12.176 60.2437 11.952C60.7557 11.728 61.2677 11.616 61.7797 11.616C63.3637 11.616 64.1557 12.536 64.1557 14.376V21.72C64.1557 22.392 64.3237 22.728 64.6597 22.728C64.8677 22.728 65.0597 22.592 65.2357 22.32C65.4117 22.032 65.4997 21.552 65.4997 20.88C65.4997 20.624 65.6037 20.496 65.8117 20.496C66.0037 20.496 66.0997 20.632 66.0997 20.904C66.0997 22.072 65.8917 22.92 65.4757 23.448C65.0757 23.96 64.6197 24.216 64.1077 24.216C63.7237 24.216 63.4197 24.064 63.1957 23.76C62.9717 23.44 62.8197 23.064 62.7397 22.632C62.7237 22.472 62.6517 22.392 62.5237 22.392C62.4117 22.376 62.2997 22.448 62.1877 22.608C61.8037 23.136 61.4117 23.536 61.0117 23.808C60.6117 24.08 60.1157 24.216 59.5237 24.216ZM60.1717 23.112C60.5877 23.112 60.9717 22.968 61.3237 22.68C61.6757 22.376 61.9637 21.976 62.1877 21.48C62.4117 20.984 62.5237 20.424 62.5237 19.8V18.048C62.5237 17.744 62.3557 17.656 62.0197 17.784C61.0437 18.136 60.2837 18.624 59.7397 19.248C59.2117 19.856 58.9477 20.592 58.9477 21.456C58.9477 22.56 59.3557 23.112 60.1717 23.112ZM66.4697 24C66.2777 24 66.1817 23.912 66.1817 23.736C66.1817 23.576 66.2697 23.48 66.4457 23.448L66.7817 23.4C67.1177 23.352 67.3657 23.256 67.5257 23.112C67.6857 22.968 67.7657 22.728 67.7657 22.392V8.64C67.7657 8.352 67.7177 8.152 67.6217 8.04C67.5417 7.928 67.3897 7.864 67.1657 7.848L66.6137 7.776C66.4377 7.744 66.3497 7.648 66.3497 7.488C66.3497 7.328 66.4377 7.232 66.6137 7.2C67.0617 7.104 67.4457 6.992 67.7657 6.864C68.0857 6.736 68.3497 6.608 68.5577 6.48C68.8137 6.32 69.0057 6.24 69.1337 6.24C69.3097 6.24 69.3977 6.368 69.3977 6.624V22.392C69.3977 22.728 69.4457 22.968 69.5417 23.112C69.6537 23.24 69.8777 23.328 70.2137 23.376L70.7657 23.448C70.9417 23.48 71.0297 23.576 71.0297 23.736C71.0297 23.912 70.9337 24 70.7417 24H66.4697ZM75.3671 24.216C74.6631 24.216 74.0311 23.976 73.4711 23.496C72.9271 23 72.5031 22.32 72.1991 21.456C71.8951 20.576 71.7431 19.56 71.7431 18.408C71.7431 17.064 71.9511 15.888 72.3671 14.88C72.7831 13.856 73.3591 13.056 74.0951 12.48C74.8311 11.904 75.6631 11.616 76.5911 11.616C76.8151 11.616 77.0391 11.64 77.2631 11.688C77.4871 11.72 77.7031 11.784 77.9111 11.88C78.1671 12.008 78.2951 11.952 78.2951 11.712V8.64C78.2951 8.352 78.2471 8.152 78.1511 8.04C78.0711 7.928 77.9191 7.864 77.6951 7.848L77.0711 7.776C76.8951 7.744 76.8071 7.648 76.8071 7.488C76.8071 7.328 76.8951 7.232 77.0711 7.2C77.5831 7.104 77.9911 6.992 78.2951 6.864C78.6151 6.736 78.8791 6.608 79.0871 6.48C79.3431 6.32 79.5351 6.24 79.6631 6.24C79.8391 6.24 79.9271 6.368 79.9271 6.624V21.72C79.9271 22.392 80.0951 22.728 80.4311 22.728C80.6391 22.728 80.8311 22.592 81.0071 22.32C81.1831 22.032 81.2711 21.552 81.2711 20.88C81.2711 20.624 81.3751 20.496 81.5831 20.496C81.7751 20.496 81.8711 20.632 81.8711 20.904C81.8711 22.072 81.6711 22.92 81.2711 23.448C80.8711 23.96 80.4151 24.216 79.9031 24.216C79.4391 24.216 79.0871 24.064 78.8471 23.76C78.6071 23.44 78.4471 23.064 78.3671 22.632C78.3511 22.504 78.2951 22.44 78.1991 22.44C78.1031 22.424 78.0151 22.48 77.9351 22.608C77.4871 23.232 77.0791 23.656 76.7111 23.88C76.3431 24.104 75.8951 24.216 75.3671 24.216ZM75.8951 23.112C76.3111 23.112 76.6951 22.976 77.0471 22.704C77.4151 22.416 77.7111 22.032 77.9351 21.552C78.1751 21.072 78.2951 20.536 78.2951 19.944V14.544C78.2951 13.824 78.1271 13.256 77.7911 12.84C77.4711 12.424 77.0471 12.216 76.5191 12.216C75.6231 12.216 74.8951 12.744 74.3351 13.8C73.7911 14.84 73.5191 16.264 73.5191 18.072C73.5191 19.72 73.7271 20.976 74.1431 21.84C74.5751 22.688 75.1591 23.112 75.8951 23.112ZM84.8959 24.216C84.5279 24.216 84.1359 24.168 83.7199 24.072C83.3039 23.992 82.9679 23.888 82.7119 23.76C82.5679 23.68 82.4959 23.544 82.4959 23.352L82.4239 20.664C82.4239 20.392 82.5279 20.256 82.7359 20.256C82.9119 20.256 83.0319 20.384 83.0959 20.64C83.3679 21.776 83.6959 22.552 84.0799 22.968C84.4799 23.384 84.9599 23.592 85.5199 23.592C85.9839 23.592 86.3679 23.416 86.6719 23.064C86.9759 22.696 87.1279 22.192 87.1279 21.552C87.1279 20.912 86.9519 20.344 86.5999 19.848C86.2479 19.352 85.6559 18.808 84.8239 18.216C83.9919 17.656 83.3839 17.096 82.9999 16.536C82.6159 15.96 82.4239 15.336 82.4239 14.664C82.4239 13.752 82.7439 13.016 83.3839 12.456C84.0239 11.896 84.8719 11.616 85.9279 11.616C86.2479 11.616 86.5599 11.656 86.8639 11.736C87.1679 11.8 87.4399 11.912 87.6799 12.072C87.8239 12.168 87.8959 12.296 87.8959 12.456L87.9439 15.096C87.9439 15.336 87.8479 15.456 87.6559 15.456C87.5439 15.456 87.4639 15.424 87.4159 15.36C87.3679 15.28 87.3279 15.184 87.2959 15.072C86.9759 14.032 86.6559 13.312 86.3359 12.912C86.0159 12.496 85.6239 12.288 85.1599 12.288C84.7439 12.288 84.3999 12.432 84.1279 12.72C83.8559 13.008 83.7199 13.368 83.7199 13.8C83.7199 14.36 83.8879 14.848 84.2239 15.264C84.5599 15.68 85.1679 16.192 86.0479 16.8C86.8479 17.376 87.4479 18 87.8479 18.672C88.2639 19.328 88.4719 20.048 88.4719 20.832C88.4719 21.856 88.1439 22.68 87.4879 23.304C86.8319 23.912 85.9679 24.216 84.8959 24.216Z" fill="#242423"/>
<path d="M92.4227 9.925V9.01818H97.8261V9.925H95.6477V16H94.5977V9.925H92.4227ZM98.8762 9.01818H100.155L102.377 14.4455H102.459L104.682 9.01818H105.96V16H104.958V10.9477H104.893L102.834 15.9898H102.002L99.9432 10.9443H99.8784V16H98.8762V9.01818Z" fill="#242423"/>
</svg>
