<svg width="358" height="108" viewBox="0 0 358 108" fill="none" xmlns="http://www.w3.org/2000/svg">
<path d="M2.879 81.5C2.069 81.5 1.664 81.203 1.664 80.609C1.664 80.123 2.015 79.799 2.717 79.637L4.58 79.313C5.714 79.097 6.443 78.8 6.767 78.422C7.145 78.044 7.334 77.288 7.334 76.154V28.526C7.334 27.392 7.145 26.636 6.767 26.258C6.443 25.88 5.714 25.583 4.58 25.367L2.717 25.043C2.015 24.881 1.664 24.557 1.664 24.071C1.664 23.477 2.069 23.18 2.879 23.18H17.702C18.512 23.18 18.917 23.504 18.917 24.152C18.917 24.638 18.62 24.935 18.026 25.043L15.839 25.367C14.705 25.529 13.949 25.826 13.571 26.258C13.247 26.69 13.085 27.473 13.085 28.607V50.477C13.085 51.017 13.247 51.341 13.571 51.449C13.895 51.557 14.192 51.368 14.462 50.882L27.746 30.065C29.528 27.311 29.366 25.745 27.26 25.367L25.397 25.043C24.695 24.881 24.344 24.53 24.344 23.99C24.344 23.45 24.722 23.18 25.478 23.18H39.248C40.004 23.18 40.382 23.477 40.382 24.071C40.382 24.665 40.031 24.989 39.329 25.043L37.79 25.205C36.116 25.367 34.739 25.853 33.659 26.663C32.579 27.473 31.364 28.931 30.014 31.037L20.861 45.374C20.321 46.292 20.294 47.183 20.78 48.047L36.008 76.721C36.44 77.585 36.872 78.206 37.304 78.584C37.79 78.962 38.357 79.205 39.005 79.313L40.949 79.637C41.597 79.691 41.921 80.015 41.921 80.609C41.921 81.203 41.543 81.5 40.787 81.5H26.369C25.613 81.5 25.235 81.203 25.235 80.609C25.235 80.069 25.586 79.745 26.288 79.637L27.665 79.475C29.771 79.205 30.203 77.882 28.961 75.506L17.297 53.312C17.081 52.88 16.838 52.664 16.568 52.664C16.298 52.61 16.028 52.799 15.758 53.231L14.057 55.904C13.679 56.444 13.409 56.957 13.247 57.443C13.139 57.929 13.085 58.55 13.085 59.306V76.073C13.085 77.207 13.247 77.99 13.571 78.422C13.949 78.854 14.705 79.151 15.839 79.313L18.026 79.637C18.62 79.745 18.917 80.042 18.917 80.528C18.917 81.176 18.512 81.5 17.702 81.5H2.879ZM41.6856 81.5C41.0376 81.5 40.7136 81.203 40.7136 80.609C40.7136 80.069 41.0106 79.745 41.6046 79.637L42.7386 79.475C43.8726 79.313 44.6016 78.989 44.9256 78.503C45.3036 78.017 45.4926 77.207 45.4926 76.073V29.66C45.4926 28.688 45.3306 28.04 45.0066 27.716C44.7366 27.338 44.2236 27.095 43.4676 26.987L41.7666 26.744C41.1726 26.636 40.8756 26.312 40.8756 25.772C40.8756 25.232 41.1726 24.908 41.7666 24.8C43.2786 24.476 44.5476 24.098 45.5736 23.666C46.5996 23.234 47.4636 22.802 48.1656 22.37C49.0296 21.83 49.6776 21.56 50.1096 21.56C50.7036 21.56 51.0006 21.992 51.0006 22.856V44.321C51.0006 44.807 51.1626 45.104 51.4866 45.212C51.8106 45.266 52.2156 45.077 52.7016 44.645C54.7536 42.755 56.5626 41.459 58.1286 40.757C59.6946 40.055 61.3416 39.704 63.0696 39.704C65.6076 39.704 67.6056 40.568 69.0636 42.296C70.5216 43.97 71.2506 46.454 71.2506 49.748V76.073C71.2506 77.207 71.4126 78.017 71.7366 78.503C72.1146 78.935 72.8706 79.232 74.0046 79.394L75.7866 79.637C76.3806 79.745 76.6776 80.069 76.6776 80.609C76.6776 81.203 76.3536 81.5 75.7056 81.5H62.0976C61.3416 81.5 60.9636 81.203 60.9636 80.609C60.9636 80.069 61.2606 79.745 61.8546 79.637L62.9886 79.475C64.1226 79.313 64.8516 78.989 65.1756 78.503C65.5536 78.017 65.7426 77.207 65.7426 76.073V50.639C65.7426 47.993 65.2566 46.13 64.2846 45.05C63.3126 43.97 61.9356 43.43 60.1536 43.43C58.4256 43.43 56.8596 43.943 55.4556 44.969C54.1056 45.941 53.0256 47.264 52.2156 48.938C51.4056 50.558 51.0006 52.367 51.0006 54.365V76.073C51.0006 77.207 51.1626 78.017 51.4866 78.503C51.8646 78.989 52.6206 79.286 53.7546 79.394L55.9416 79.637C56.5356 79.745 56.8326 80.069 56.8326 80.609C56.8326 81.203 56.5086 81.5 55.8606 81.5H41.6856ZM86.4564 82.229C84.1884 82.229 82.3254 81.527 80.8674 80.123C79.4094 78.665 78.6804 76.748 78.6804 74.372C78.6804 72.05 79.4094 69.863 80.8674 67.811C82.3254 65.705 84.3234 63.815 86.8614 62.141C89.3994 60.467 92.2884 59.117 95.5284 58.091C96.2304 57.875 96.5814 57.416 96.5814 56.714V49.343C96.5814 46.751 96.1764 44.915 95.3664 43.835C94.5564 42.701 93.4494 42.134 92.0454 42.134C90.6954 42.134 89.4534 42.755 88.3194 43.997C87.2394 45.185 86.4564 47.21 85.9704 50.072C85.7004 51.8 85.1064 53.069 84.1884 53.879C83.3244 54.635 82.4334 55.013 81.5154 55.013C80.0034 55.013 79.2474 54.257 79.2474 52.745C79.2474 51.179 79.6794 49.64 80.5434 48.128C81.4614 46.562 82.6494 45.158 84.1074 43.916C85.5654 42.62 87.1584 41.594 88.8864 40.838C90.6144 40.082 92.3424 39.704 94.0704 39.704C99.4164 39.704 102.089 42.809 102.089 49.019V73.805C102.089 76.073 102.656 77.207 103.79 77.207C104.492 77.207 105.14 76.748 105.734 75.83C106.328 74.858 106.625 73.238 106.625 70.97C106.625 70.106 106.976 69.674 107.678 69.674C108.326 69.674 108.65 70.133 108.65 71.051C108.65 74.993 107.948 77.855 106.544 79.637C105.194 81.365 103.655 82.229 101.927 82.229C100.631 82.229 99.6054 81.716 98.8494 80.69C98.0934 79.61 97.5804 78.341 97.3104 76.883C97.2564 76.343 97.0134 76.073 96.5814 76.073C96.2034 76.019 95.8254 76.262 95.4474 76.802C94.1514 78.584 92.8284 79.934 91.4784 80.852C90.1284 81.77 88.4544 82.229 86.4564 82.229ZM88.6434 78.503C90.0474 78.503 91.3434 78.017 92.5314 77.045C93.7194 76.019 94.6914 74.669 95.4474 72.995C96.2034 71.321 96.5814 69.431 96.5814 67.325V61.412C96.5814 60.386 96.0144 60.089 94.8804 60.521C91.5864 61.709 89.0214 63.356 87.1854 65.462C85.4034 67.514 84.5124 69.998 84.5124 72.914C84.5124 76.64 85.8894 78.503 88.6434 78.503ZM110.709 81.5C109.899 81.5 109.494 81.203 109.494 80.609C109.494 80.123 109.845 79.799 110.547 79.637L111.519 79.475C112.653 79.259 113.382 78.935 113.706 78.503C114.084 78.017 114.273 77.207 114.273 76.073V48.857C114.273 47.885 114.111 47.237 113.787 46.913C113.517 46.535 113.004 46.292 112.248 46.184L110.547 45.941C109.845 45.887 109.494 45.59 109.494 45.05C109.494 44.618 109.926 44.321 110.79 44.159C112.464 43.889 113.733 43.457 114.597 42.863C115.515 42.269 116.46 41.54 117.432 40.676C117.918 40.19 118.323 39.947 118.647 39.947C119.133 39.947 119.376 40.271 119.376 40.919V44.564C119.376 45.05 119.538 45.374 119.862 45.536C120.24 45.644 120.645 45.482 121.077 45.05C123.237 42.998 125.127 41.594 126.747 40.838C128.421 40.082 130.176 39.704 132.012 39.704C134.442 39.704 136.386 40.568 137.844 42.296C139.302 43.97 140.031 46.454 140.031 49.748V76.073C140.031 77.207 140.193 78.017 140.517 78.503C140.895 78.935 141.651 79.232 142.785 79.394L144.567 79.637C145.161 79.745 145.458 80.069 145.458 80.609C145.458 81.203 145.134 81.5 144.486 81.5H130.878C130.122 81.5 129.744 81.203 129.744 80.609C129.744 80.069 130.041 79.745 130.635 79.637L131.769 79.475C132.903 79.313 133.632 78.989 133.956 78.503C134.334 78.017 134.523 77.207 134.523 76.073V50.639C134.523 47.993 134.037 46.13 133.065 45.05C132.093 43.97 130.716 43.43 128.934 43.43C127.206 43.43 125.64 43.943 124.236 44.969C122.886 45.941 121.806 47.264 120.996 48.938C120.186 50.558 119.781 52.367 119.781 54.365V76.073C119.781 77.207 119.943 78.017 120.267 78.503C120.645 78.989 121.401 79.286 122.535 79.394L124.722 79.637C125.316 79.745 125.613 80.042 125.613 80.528C125.613 81.176 125.208 81.5 124.398 81.5H110.709ZM159.873 82.229C159.171 82.229 158.685 81.689 158.415 80.609L148.614 45.617C148.236 44.321 147.858 43.484 147.48 43.106C147.156 42.728 146.616 42.458 145.86 42.296L144.645 42.053C143.943 41.891 143.592 41.54 143.592 41C143.592 40.46 143.97 40.19 144.726 40.19H157.848C158.604 40.19 158.982 40.46 158.982 41C158.982 41.594 158.631 41.945 157.929 42.053L156.633 42.215C155.337 42.377 154.527 42.701 154.203 43.187C153.879 43.619 153.879 44.429 154.203 45.617L160.602 69.188C160.764 69.728 161.007 69.998 161.331 69.998C161.709 69.998 161.979 69.728 162.141 69.188L167.649 48.209C167.757 47.777 167.811 47.345 167.811 46.913C167.865 46.481 167.811 46.022 167.649 45.536C167.271 44.24 166.893 43.43 166.515 43.106C166.191 42.728 165.651 42.458 164.895 42.296L163.68 42.053C162.978 41.891 162.627 41.54 162.627 41C162.627 40.46 163.005 40.19 163.761 40.19H176.883C177.639 40.19 178.017 40.46 178.017 41C178.017 41.594 177.666 41.945 176.964 42.053L175.668 42.215C174.372 42.377 173.589 42.701 173.319 43.187C173.049 43.619 173.022 44.429 173.238 45.617L178.422 69.026C178.53 69.566 178.746 69.836 179.07 69.836C179.448 69.836 179.718 69.566 179.88 69.026L186.036 47.075C186.468 45.617 186.576 44.537 186.36 43.835C186.198 43.079 185.442 42.593 184.092 42.377L182.391 42.053C181.689 41.891 181.338 41.54 181.338 41C181.338 40.46 181.716 40.19 182.472 40.19H192.597C193.353 40.19 193.731 40.487 193.731 41.081C193.731 41.621 193.407 41.999 192.759 42.215L192.03 42.458C191.22 42.728 190.518 43.214 189.924 43.916C189.33 44.618 188.79 45.833 188.304 47.561L179.07 80.609C178.8 81.689 178.287 82.229 177.531 82.229C176.883 82.229 176.424 81.689 176.154 80.609L169.836 54.689C169.674 54.095 169.404 53.798 169.026 53.798C168.702 53.744 168.459 54.041 168.297 54.689L161.331 80.609C161.061 81.689 160.575 82.229 159.873 82.229ZM201.018 82.229C198.75 82.229 196.887 81.527 195.429 80.123C193.971 78.665 193.242 76.748 193.242 74.372C193.242 72.05 193.971 69.863 195.429 67.811C196.887 65.705 198.885 63.815 201.423 62.141C203.961 60.467 206.85 59.117 210.09 58.091C210.792 57.875 211.143 57.416 211.143 56.714V49.343C211.143 46.751 210.738 44.915 209.928 43.835C209.118 42.701 208.011 42.134 206.607 42.134C205.257 42.134 204.015 42.755 202.881 43.997C201.801 45.185 201.018 47.21 200.532 50.072C200.262 51.8 199.668 53.069 198.75 53.879C197.886 54.635 196.995 55.013 196.077 55.013C194.565 55.013 193.809 54.257 193.809 52.745C193.809 51.179 194.241 49.64 195.105 48.128C196.023 46.562 197.211 45.158 198.669 43.916C200.127 42.62 201.72 41.594 203.448 40.838C205.176 40.082 206.904 39.704 208.632 39.704C213.978 39.704 216.651 42.809 216.651 49.019V73.805C216.651 76.073 217.218 77.207 218.352 77.207C219.054 77.207 219.702 76.748 220.296 75.83C220.89 74.858 221.187 73.238 221.187 70.97C221.187 70.106 221.538 69.674 222.24 69.674C222.888 69.674 223.212 70.133 223.212 71.051C223.212 74.993 222.51 77.855 221.106 79.637C219.756 81.365 218.217 82.229 216.489 82.229C215.193 82.229 214.167 81.716 213.411 80.69C212.655 79.61 212.142 78.341 211.872 76.883C211.818 76.343 211.575 76.073 211.143 76.073C210.765 76.019 210.387 76.262 210.009 76.802C208.713 78.584 207.39 79.934 206.04 80.852C204.69 81.77 203.016 82.229 201.018 82.229ZM203.205 78.503C204.609 78.503 205.905 78.017 207.093 77.045C208.281 76.019 209.253 74.669 210.009 72.995C210.765 71.321 211.143 69.431 211.143 67.325V61.412C211.143 60.386 210.576 60.089 209.442 60.521C206.148 61.709 203.583 63.356 201.747 65.462C199.965 67.514 199.074 69.998 199.074 72.914C199.074 76.64 200.451 78.503 203.205 78.503ZM224.46 81.5C223.812 81.5 223.488 81.203 223.488 80.609C223.488 80.069 223.785 79.745 224.379 79.637L225.513 79.475C226.647 79.313 227.484 78.989 228.024 78.503C228.564 78.017 228.834 77.207 228.834 76.073V29.66C228.834 28.688 228.672 28.013 228.348 27.635C228.078 27.257 227.565 27.041 226.809 26.987L224.946 26.744C224.352 26.636 224.055 26.312 224.055 25.772C224.055 25.232 224.352 24.908 224.946 24.8C226.458 24.476 227.754 24.098 228.834 23.666C229.914 23.234 230.805 22.802 231.507 22.37C232.371 21.83 233.019 21.56 233.451 21.56C234.045 21.56 234.342 21.992 234.342 22.856V76.073C234.342 77.207 234.504 78.017 234.828 78.503C235.206 78.935 235.962 79.232 237.096 79.394L238.959 79.637C239.553 79.745 239.85 80.069 239.85 80.609C239.85 81.203 239.526 81.5 238.878 81.5H224.46ZM254.489 82.229C252.113 82.229 249.98 81.419 248.09 79.799C246.254 78.125 244.823 75.83 243.797 72.914C242.771 69.944 242.258 66.515 242.258 62.627C242.258 58.091 242.96 54.122 244.364 50.72C245.768 47.264 247.712 44.564 250.196 42.62C252.68 40.676 255.488 39.704 258.62 39.704C259.376 39.704 260.132 39.785 260.888 39.947C261.644 40.055 262.373 40.271 263.075 40.595C263.939 41.027 264.371 40.838 264.371 40.028V29.66C264.371 28.688 264.209 28.013 263.885 27.635C263.615 27.257 263.102 27.041 262.346 26.987L260.24 26.744C259.646 26.636 259.349 26.312 259.349 25.772C259.349 25.232 259.646 24.908 260.24 24.8C261.968 24.476 263.345 24.098 264.371 23.666C265.451 23.234 266.342 22.802 267.044 22.37C267.908 21.83 268.556 21.56 268.988 21.56C269.582 21.56 269.879 21.992 269.879 22.856V73.805C269.879 76.073 270.446 77.207 271.58 77.207C272.282 77.207 272.93 76.748 273.524 75.83C274.118 74.858 274.415 73.238 274.415 70.97C274.415 70.106 274.766 69.674 275.468 69.674C276.116 69.674 276.44 70.133 276.44 71.051C276.44 74.993 275.765 77.855 274.415 79.637C273.065 81.365 271.526 82.229 269.798 82.229C268.232 82.229 267.044 81.716 266.234 80.69C265.424 79.61 264.884 78.341 264.614 76.883C264.56 76.451 264.371 76.235 264.047 76.235C263.723 76.181 263.426 76.37 263.156 76.802C261.644 78.908 260.267 80.339 259.025 81.095C257.783 81.851 256.271 82.229 254.489 82.229ZM256.271 78.503C257.675 78.503 258.971 78.044 260.159 77.126C261.401 76.154 262.4 74.858 263.156 73.238C263.966 71.618 264.371 69.809 264.371 67.811V49.586C264.371 47.156 263.804 45.239 262.67 43.835C261.59 42.431 260.159 41.729 258.377 41.729C255.353 41.729 252.896 43.511 251.006 47.075C249.17 50.585 248.252 55.391 248.252 61.493C248.252 67.055 248.954 71.294 250.358 74.21C251.816 77.072 253.787 78.503 256.271 78.503ZM286.649 82.229C285.407 82.229 284.084 82.067 282.68 81.743C281.276 81.473 280.142 81.122 279.278 80.69C278.792 80.42 278.549 79.961 278.549 79.313L278.306 70.241C278.306 69.323 278.657 68.864 279.359 68.864C279.953 68.864 280.358 69.296 280.574 70.16C281.492 73.994 282.599 76.613 283.895 78.017C285.245 79.421 286.865 80.123 288.755 80.123C290.321 80.123 291.617 79.529 292.643 78.341C293.669 77.099 294.182 75.398 294.182 73.238C294.182 71.078 293.588 69.161 292.4 67.487C291.212 65.813 289.214 63.977 286.406 61.979C283.598 60.089 281.546 58.199 280.25 56.309C278.954 54.365 278.306 52.259 278.306 49.991C278.306 46.913 279.386 44.429 281.546 42.539C283.706 40.649 286.568 39.704 290.132 39.704C291.212 39.704 292.265 39.839 293.291 40.109C294.317 40.325 295.235 40.703 296.045 41.243C296.531 41.567 296.774 41.999 296.774 42.539L296.936 51.449C296.936 52.259 296.612 52.664 295.964 52.664C295.586 52.664 295.316 52.556 295.154 52.34C294.992 52.07 294.857 51.746 294.749 51.368C293.669 47.858 292.589 45.428 291.509 44.078C290.429 42.674 289.106 41.972 287.54 41.972C286.136 41.972 284.975 42.458 284.057 43.43C283.139 44.402 282.68 45.617 282.68 47.075C282.68 48.965 283.247 50.612 284.381 52.016C285.515 53.42 287.567 55.148 290.537 57.2C293.237 59.144 295.262 61.25 296.612 63.518C298.016 65.732 298.718 68.162 298.718 70.808C298.718 74.264 297.611 77.045 295.397 79.151C293.183 81.203 290.267 82.229 286.649 82.229Z" fill="white"/>
<path d="M309.302 34.9969V31.9364H327.538V34.9969H320.186V55.5H316.642V34.9969H309.302ZM331.082 31.9364H335.397L342.898 50.2534H343.175L350.676 31.9364H354.991V55.5H351.608V38.4486H351.39L344.44 55.4655H341.633L334.683 38.4371H334.465V55.5H331.082V31.9364Z" fill="white"/>
</svg>
